HIERARCHY
ROOT pelvis
{
  OFFSET 0 0 0
  CHANNELS 6 Xposition Yposition Zposition Zrotation Xrotation Yrotation
  JOINT pelvis_right_femur
  {
    OFFSET -11.43119 -3.542788 0.2090856
    CHANNELS 3 Zrotation Xrotation Yrotation
    JOINT right_femur_tibia
    {
      OFFSET -1.028693 -40.73281 5
      CHANNELS 3 Zrotation Xrotation Yrotation
      JOINT right_tibia_foot
      {
        OFFSET -0.5013517 -42.05707 -5
        CHANNELS 3 Zrotation Xrotation Yrotation
        End Site
        {
          OFFSET 0 -5 10
        }
      }
    }
  }
  JOINT pelvis_left_femur
  {
    OFFSET 11.43119 -3.542788 0.2090856
    CHANNELS 3 Zrotation Xrotation Yrotation
    JOINT left_femur_tibia
    {
      OFFSET 1.028693 -40.73281 5
      CHANNELS 3 Zrotation Xrotation Yrotation
      JOINT left_tibia_foot
      {
        OFFSET 0.3200228 -42.98253 -5
        CHANNELS 3 Zrotation Xrotation Yrotation
        End Site
        {
          OFFSET 0 -5 10
        }
      }
    }
  }
  JOINT pelvis_spine1
  {
    OFFSET 0 8.64413 -3.209807
    CHANNELS 3 Zrotation Xrotation Yrotation
    JOINT spine1
    {
      OFFSET 0 29.53957 -1.762685
      CHANNELS 3 Zrotation Xrotation Yrotation
      JOINT spine2
      {
        OFFSET 0 16.36153 -0.1422377
        CHANNELS 3 Zrotation Xrotation Yrotation
        JOINT neck
        {
          OFFSET 0 11.60093 5
          CHANNELS 3 Zrotation Xrotation Yrotation
          End Site
          {
            OFFSET 0 20 0
          }
        }
      }
      JOINT right_manubrium
      {
        OFFSET -4.671311 15.89868 4
        CHANNELS 3 Zrotation Xrotation Yrotation
        JOINT right_clavicle
        {
          OFFSET -13.601 1.573642 -2.74176
          CHANNELS 3 Zrotation Xrotation Yrotation
          JOINT right_humerus
          {
            OFFSET -0.06331682 -27.72702 2.252146
            CHANNELS 3 Zrotation Xrotation Yrotation
            JOINT right_radius
            {
              OFFSET -0.5696302 -23.92083 0.4042105
              CHANNELS 3 Zrotation Xrotation Yrotation
              End Site
              {
                OFFSET 0 -15 0
              }
            }
          }
        }
      }
      JOINT left_manubrium
      {
        OFFSET 4.671311 15.89868 4
        CHANNELS 3 Zrotation Xrotation Yrotation
        JOINT left_clavicle
        {
          OFFSET 13.601 1.573642 -2.74176
          CHANNELS 3 Zrotation Xrotation Yrotation
          JOINT left_humerus
          {
            OFFSET 0.000209614 -29.01858 1.101395
            CHANNELS 3 Zrotation Xrotation Yrotation
            JOINT left_radius
            {
              OFFSET -0.2288314 -24.59216 1.790347
              CHANNELS 3 Zrotation Xrotation Yrotation
              End Site
              {
                OFFSET 0 -15 0
              }
            }
          }
        }
      }
    }
  }
}
MOTION
Frames: 21
Frame Time: 0.0416666666667
0.04932047 47.98862 0.6624917 -3.99664 -19.98709 -0.6503682 -53.31769 -60.73026 -52.34932 -180 85.63101 -180 5.959966 5.727066 -1.775247 69.22628 -52.14336 64.27928 -180 79.93766 -180 -4.886124 3.63423 -19.37026 -2.1034 19.45406 0.2884439 10.35578 14.27308 -11.11533 -10.39922 7.838735 7.485585 8.145685 -27.73116 5.646494 22.63856 -7.382776 22.91453 -59.54657 -31.75448 11.1675 0 -63.6516 0 10.25632 -12.35816 17.85284 -28.31186 -30.38069 -7.935778 54.46529 -24.87226 -28.7522 0 -69.99855 0 -13.70047 -11.66207 2.941388
0.03445966 47.92356 0.6382566 -4.078595 -20.02489 -0.7890139 -53.26872 -60.78872 -52.42233 -180 85.61832 -180 5.947262 5.748542 -1.719298 69.39397 -52.16182 64.27179 -180 79.85825 -180 -4.917978 3.603517 -19.30371 -2.127282 19.72349 0.3167032 9.986586 13.99229 -10.83405 -10.45758 7.623159 7.426879 8.234578 -27.90941 5.558235 22.58404 -7.323089 22.58714 -59.76423 -31.62567 11.23875 0 -63.67749 0 9.251876 -13.49938 16.16292 -28.49068 -30.82422 -7.331543 54.82008 -24.24119 -27.53612 0 -70.20344 0 -14.58247 -10.07734 -0.09100438
0.02379986 47.88668 0.6366459 -4.147594 -20.03143 -0.9304131 -53.26617 -60.8212 -52.55841 -180 85.60764 -180 5.934033 5.769445 -1.651872 69.50154 -52.1893 64.21332 -180 79.79124 -180 -4.951485 3.580811 -19.21786 -2.173642 19.92211 0.4167246 9.640327 13.85019 -10.58111 -10.4853 7.432052 7.342938 8.360715 -28.12599 5.444763 22.5141 -7.18804 22.19631 -59.94101 -31.50617 11.36645 0 -64.03248 0 8.120888 -14.7144 14.4666 -28.679 -31.37917 -6.666149 55.33654 -23.59188 -26.187 0 -70.1122 0 -15.42033 -8.136317 -3.31515
-0.006781266 47.86331 0.6249415 -4.201495 -20.00924 -1.008618 -53.31561 -60.82012 -52.75531 -180 85.61233 -180 5.929709 5.783593 -1.589508 69.61386 -52.26811 64.17826 -180 79.75661 -180 -4.975485 3.565697 -19.12932 -2.224736 20.04435 0.5943484 9.365163 13.81121 -10.37026 -10.55972 7.333327 7.226111 8.482193 -28.33629 5.254606 22.38423 -6.953112 21.79823 -60.03189 -31.46292 11.64533 0 -64.80711 0 6.874845 -15.98185 12.8351 -28.76801 -31.94314 -6.052807 55.92542 -23.10611 -24.98868 0 -69.80214 0 -16.26571 -5.786836 -6.749158
-0.03899448 47.85302 0.624098 -4.247385 -19.98442 -1.022329 -53.36291 -60.77133 -52.93419 -180 85.62605 -180 5.923515 5.785006 -1.531144 69.67145 -52.37066 64.10909 -180 79.75164 -180 -4.986979 3.548699 -19.06244 -2.288998 20.09802 0.8094228 9.22248 13.89169 -10.22406 -10.70935 7.311157 7.090975 8.58802 -28.54372 4.989251 22.19189 -6.674059 21.54209 -60.0738 -31.57635 12.05499 0 -65.89326 0 5.515405 -17.24713 11.26495 -28.65507 -32.25733 -5.56161 56.45928 -22.8297 -24.32109 0 -69.29314 0 -17.16158 -3.028397 -10.30644
-0.04722675 47.86725 0.6246311 -4.29848 -19.91774 -0.9895754 -53.44371 -60.70187 -53.13092 -180 85.66345 -180 5.929025 5.774347 -1.490917 69.74131 -52.48726 64.11471 -180 79.76984 -180 -4.994396 3.542797 -19.02545 -2.336095 20.0693 1.039171 9.224548 14.0908 -10.15196 -10.94954 7.342902 6.934246 8.661373 -28.73481 4.637744 21.94497 -6.415214 21.53886 -60.07946 -31.86775 12.53696 0 -67.01568 0 4.028276 -18.4212 9.737381 -28.31651 -32.09656 -5.241107 56.82346 -22.74072 -24.37164 0 -68.54272 0 -18.04955 0.1046539 -13.83765
-0.01751173 47.92934 0.662301 -4.351889 -19.82221 -0.9140189 -53.48563 -60.57797 -53.25981 -180 85.72087 -180 5.940697 5.748016 -1.487636 69.75771 -52.57354 64.13034 -180 79.79552 -180 -4.983541 3.538949 -19.02726 -2.343695 19.9219 1.278685 9.335001 14.42114 -10.13875 -11.28399 7.483189 6.760809 8.697035 -28.88915 4.204152 21.67703 -6.191328 21.78819 -60.08284 -32.2811 13.0432 0 -67.94193 0 2.41235 -19.43044 8.24901 -27.89868 -31.61257 -5.134089 56.86873 -22.85873 -24.9722 0 -67.8291 0 -18.73285 3.30201 -17.20079
0.01855668 47.96589 0.694477 -4.38148 -19.7506 -0.7784149 -53.56536 -60.47821 -53.34027 -180 85.74012 -180 5.964249 5.71915 -1.532486 69.77661 -52.65678 64.20804 -180 79.82034 -180 -4.968153 3.549652 -19.07441 -2.259567 19.74591 1.53504 9.409936 14.51047 -10.03022 -11.7035 7.874347 6.566097 8.698042 -28.89478 3.671288 21.39245 -5.944234 22.14808 -60.05723 -32.68151 13.57444 0 -68.56181 0 0.6927472 -20.2673 6.79953 -27.59797 -31.24817 -5.223786 56.38511 -23.46218 -25.7057 0 -68.05963 0 -19.09327 6.044162 -20.27731
0.06727047 47.99159 0.727695 -4.418873 -19.66675 -0.6180385 -53.62734 -60.40998 -53.36173 -180 85.74672 -180 5.997616 5.672056 -1.609943 69.83765 -52.75271 64.34407 -180 79.83027 -180 -4.934811 3.562279 -19.14459 -2.1801 19.65619 1.766064 9.447048 14.50002 -9.890685 -12.06235 8.255982 6.353992 8.741315 -28.89897 3.125785 21.14032 -5.712931 22.54862 -59.98452 -33.10723 14.11812 0 -69.00762 0 -1.114158 -20.96679 5.445227 -27.41564 -30.9965 -5.353619 55.77813 -24.02588 -26.27103 0 -68.1027 0 -19.2084 8.480001 -22.98863
0.1135821 48.01139 0.7476591 -4.451466 -19.58762 -0.4105133 -53.67426 -60.36504 -53.33245 -180 85.74379 -180 6.045992 5.619759 -1.730468 69.91427 -52.86886 64.52492 -180 79.84953 -180 -4.892909 3.593402 -19.24117 -2.086092 19.5744 1.992947 9.457818 14.45021 -9.74644 -12.34582 8.611638 6.145107 8.839433 -28.90864 2.607774 21.00755 -5.535296 22.91443 -59.85697 -33.47781 14.5504 0 -69.25125 0 -3.045993 -21.55141 4.141016 -27.40428 -30.81869 -5.459801 55.0618 -24.50877 -26.68378 0 -68.09187 0 -19.14518 10.58876 -25.37782
0.1524012 48.02126 0.7576403 -4.477554 -19.51796 -0.1640039 -53.71985 -60.32467 -53.27041 -180 85.7242 -180 6.101994 5.561434 -1.881957 69.99288 -53.01589 64.71174 -180 79.87 -180 -4.838161 3.639231 -19.34998 -2.021997 19.51605 2.230488 9.448497 14.40067 -9.610571 -12.52951 8.885076 5.935085 9.009647 -28.95689 2.11783 20.98755 -5.395919 23.17712 -59.70325 -33.69939 14.81419 0 -69.28511 0 -5.051191 -22.01691 2.90372 -27.52155 -30.69383 -5.54089 54.32315 -24.9094 -26.95254 0 -68.11578 0 -18.97039 12.39281 -27.49674
0.1808466 48.02755 0.7601424 -4.494225 -19.45344 0.1090741 -53.74945 -60.28824 -53.17876 -180 85.70675 -180 6.166773 5.499373 -2.058352 70.06337 -53.18206 64.89569 -180 79.90682 -180 -4.775518 3.692546 -19.45839 -1.961823 19.4861 2.453816 9.450458 14.37405 -9.489583 -12.68171 9.061509 5.733262 9.227866 -29.04752 1.630158 21.07491 -5.2987 23.33017 -59.59873 -33.71805 14.88058 0 -69.07778 0 -7.040617 -22.36827 1.719249 -27.73661 -30.58557 -5.628284 53.50961 -25.25725 -27.17382 0 -68.22963 0 -18.72076 13.91145 -29.39003
0.2002607 48.03643 0.758543 -4.498632 -19.39486 0.3992408 -53.78314 -60.24687 -53.07947 -180 85.68884 -180 6.231973 5.431384 -2.240762 70.11858 -53.34888 65.07331 -180 79.9542 -180 -4.717479 3.751863 -19.57222 -1.909114 19.44806 2.62761 9.47454 14.3548 -9.413731 -12.84022 9.190133 5.534977 9.466779 -29.14397 1.112884 21.19369 -5.254001 23.40174 -59.5749 -33.62336 14.82835 0 -68.86734 0 -8.921352 -22.70397 0.6386786 -27.97023 -30.44318 -5.735633 52.648 -25.53988 -27.37032 0 -68.39554 0 -18.43336 15.19245 -31.05491
0.210148 48.04557 0.7652994 -4.484169 -19.36641 0.6715398 -53.77883 -60.20214 -52.9334 -180 85.65558 -180 6.295315 5.356953 -2.415573 70.12322 -53.47001 65.20452 -180 80.00026 -180 -4.656181 3.798096 -19.68946 -1.865112 19.44251 2.784047 9.496476 14.3311 -9.363618 -12.981 9.275171 5.286257 9.734367 -29.25172 0.5104834 21.25684 -5.249372 23.45626 -59.65509 -33.46781 14.77173 0 -68.71878 0 -10.56933 -23.06219 -0.3025045 -28.19054 -30.31227 -5.86289 51.83306 -25.71628 -27.47111 0 -68.50725 0 -18.12257 16.2677 -32.521
0.2183652 48.04964 0.7861765 -4.457285 -19.36334 0.908206 -53.77101 -60.14826 -52.77253 -180 85.60174 -180 6.347057 5.284069 -2.555396 70.09128 -53.55098 65.28292 -180 80.02612 -180 -4.607818 3.840102 -19.79324 -1.847757 19.43671 2.878032 9.494102 14.27953 -9.33295 -13.03551 9.389098 4.915617 10.05829 -29.32723 -0.248721 21.21314 -5.345559 23.5407 -59.87213 -33.31543 14.70354 0 -68.65175 0 -11.95583 -23.44776 -1.124691 -28.33876 -30.23088 -5.944002 51.21148 -25.74192 -27.37468 0 -68.47003 0 -17.79988 17.16169 -33.78264
0.2310026 48.05923 0.816839 -4.430451 -19.37804 1.074868 -53.72885 -60.10712 -52.59257 -180 85.54679 -180 6.396036 5.219732 -2.68005 70.0313 -53.57365 65.30895 -180 80.03792 -180 -4.561645 3.866133 -19.89479 -1.869936 19.4402 2.920492 9.516607 14.23381 -9.323891 -12.91505 9.529885 4.295594 10.462 -29.3835 -1.287182 21.03607 -5.483414 23.70614 -60.19535 -33.08319 14.64216 0 -68.48239 0 -13.08649 -23.83874 -1.86594 -28.33953 -30.1569 -6.000782 50.79371 -25.67822 -27.20363 0 -68.42171 0 -17.52068 17.88952 -34.88083
0.2355486 48.07584 0.8384552 -4.401346 -19.39964 1.181656 -53.65733 -60.07226 -52.42251 -180 85.51753 -180 6.42878 5.168467 -2.76695 69.94556 -53.56644 65.2871 -180 80.05602 -180 -4.529111 3.875874 -19.96076 -1.992125 19.47803 2.917731 9.61609 14.17878 -9.392552 -12.55595 9.712633 3.319589 10.95529 -29.41898 -2.709999 20.76977 -5.665425 23.93599 -60.60076 -32.75197 14.55658 0 -68.27988 0 -13.98337 -24.23932 -2.53193 -28.18996 -30.09917 -6.004753 50.56761 -25.56568 -27.01411 0 -68.46401 0 -17.28925 18.45204 -35.83035
0.2302865 48.09085 0.8310252 -4.38126 -19.40818 1.227705 -53.57446 -60.07793 -52.28273 -180 85.53366 -180 6.452246 5.145607 -2.819587 69.88149 -53.55366 65.27805 -180 80.09741 -180 -4.512431 3.874917 -19.98417 -2.20929 19.54352 2.856581 9.820762 14.12013 -9.558456 -11.90061 10.00098 1.935619 11.55667 -29.4105 -4.566711 20.46412 -5.881582 24.1617 -61.01863 -32.33479 14.43895 0 -68.20452 0 -14.69465 -24.70623 -3.129233 -27.94137 -30.09184 -5.869515 50.50584 -25.37557 -26.7346 0 -68.59609 0 -17.09451 18.88275 -36.63946
0.2291919 48.1096 0.8199087 -4.380573 -19.41923 1.195257 -53.43854 -60.10114 -52.13254 -180 85.58237 -180 6.464719 5.141979 -2.845022 69.82062 -53.51689 65.22014 -180 80.13011 -180 -4.499039 3.858439 -19.97817 -2.489181 19.62197 2.742925 10.12494 14.08563 -9.839839 -10.97122 10.42767 0.212056 12.25974 -29.34389 -6.770242 20.16955 -6.213752 24.27427 -61.48618 -31.7798 14.15139 0 -68.31288 0 -15.25458 -25.23822 -3.663319 -27.68872 -30.17006 -5.555699 50.58538 -25.10326 -26.35657 0 -68.83043 0 -16.9251 19.19789 -37.33491
0.2331269 48.12698 0.812121 -4.384613 -19.44121 1.108692 -53.31569 -60.12085 -52.0198 -180 85.63182 -180 6.462064 5.168784 -2.841661 69.74132 -53.46929 65.11283 -180 80.14092 -180 -4.499063 3.826424 -19.93542 -2.792049 19.71707 2.584133 10.49109 14.07467 -10.22038 -9.921383 10.94409 -1.61575 13.01318 -29.20478 -9.078422 19.89354 -6.716448 24.17868 -62.07272 -31.07494 13.62572 0 -68.58731 0 -15.69349 -25.8539 -4.156543 -27.4786 -30.30773 -5.107291 50.72696 -24.78334 -25.93201 0 -69.1897 0 -16.7863 19.40998 -37.92438
0.2518584 48.13594 0.8043876 -4.374765 -19.45758 0.9705153 -53.27004 -60.16537 -51.97729 -180 85.66654 -180 6.444712 5.218208 -2.783608 69.63499 -53.41785 64.99544 -180 80.13237 -180 -4.517892 3.774237 -19.83719 -3.039332 19.81928 2.384901 10.83755 14.0524 -10.61204 -8.989027 11.49144 -3.263282 13.69765 -28.9725 -11.214 19.64156 -7.4453 23.87409 -62.79187 -30.22833 12.83039 0 -68.86994 0 -16.02018 -26.50829 -4.619238 -27.31234 -30.46642 -4.611296 50.88984 -24.41294 -25.51388 0 -69.6405 0 -16.67667 19.54465 -38.43252
